<svg width="32" height="30" viewBox="0 0 32 30" fill="none" xmlns="http://www.w3.org/2000/svg">
<g clip-path="url(#clip0_89_6)">
<path d="M0.588034 27.6151L0 26.6308C22.2995 13.2748 25.8348 7.23172 24.8735 4.51535C23.2643 -0.0425101 7.79234 1.12165 1.96833 1.9542L1.80636 0.818262C4.04582 0.497236 23.7397 -2.13094 25.9545 4.13082C27.5813 8.73454 19.2854 16.418 0.588034 27.6151Z" fill="#161616"/>
<path d="M0.47183 27.6682L0.112671 26.5781C25.2503 18.2632 30.0743 13.0809 29.694 10.1952C28.9792 4.74835 9.42615 2.45884 1.95424 2.03551L2.01762 0.888992C4.86624 1.05127 29.8595 2.67403 30.8313 10.047C31.4757 14.933 21.546 20.6973 0.47183 27.6682Z" fill="#161616"/>
<path d="M0.302823 27.7705L0.285217 26.6239C24.0038 26.2817 29.5426 22.9974 30.0109 20.3022C31.0391 14.425 9.9825 5.0976 1.78523 1.99671L2.19017 0.924271C2.26411 0.952493 9.78532 3.80644 17.046 7.55997C27.0003 12.707 31.7433 17.0602 31.1447 20.4998C30.3419 25.1035 20.2537 27.4812 0.306344 27.7705H0.302823Z" fill="#161616"/>
<path d="M17.4544 30C13.2184 30 7.47895 29.2521 0.176056 27.7599L0.404932 26.6345C19.1833 30.4762 24.2327 28.6453 25.1622 26.4334C27.4475 20.9901 8.92263 6.90381 1.59156 1.93674L2.23242 0.98777C2.29932 1.03363 9.0177 5.59854 15.2854 10.9748C23.877 18.3408 27.5566 23.6924 26.2186 26.8815C25.3453 28.9628 22.4474 30.0035 17.4544 30.0035V30Z" fill="#161616"/>
</g>
<defs>
<clipPath id="clip0_89_6">
<rect width="31.1905" height="30" fill="white"/>
</clipPath>
</defs>
</svg>
