<svg width="32" height="30" viewBox="0 0 32 30" fill="none" xmlns="http://www.w3.org/2000/svg">
<g clip-path="url(#clip0_221_330)">
<path d="M0.588034 27.615L0 26.6307C22.2995 13.2747 25.8348 7.23162 24.8735 4.51525C23.2643 -0.0426017 7.79234 1.12156 1.96833 1.95411L1.80636 0.81817C4.04582 0.497144 23.7397 -2.13103 25.9545 4.13073C27.5813 8.73445 19.2854 16.4179 0.588034 27.615Z" fill="white"/>
<path d="M0.471837 27.6683L0.112679 26.5782C25.2503 18.2633 30.0743 13.0811 29.694 10.1954C28.9792 4.74852 9.42616 2.45901 1.95425 2.03568L2.01763 0.88916C4.86625 1.05144 29.8595 2.6742 30.8313 10.0472C31.4757 14.9331 21.546 20.6975 0.471837 27.6683Z" fill="white"/>
<path d="M0.302819 27.7705L0.285213 26.624C24.0038 26.2818 29.5426 22.9975 30.0109 20.3023C31.0391 14.425 9.9825 5.09765 1.78523 1.99675L2.19016 0.924316C2.26411 0.952538 9.78531 3.80649 17.046 7.56002C27.0003 12.707 31.7433 17.0603 31.1447 20.4998C30.3419 25.1035 20.2537 27.4812 0.30634 27.7705H0.302819Z" fill="white"/>
<path d="M17.4544 30C13.2185 30 7.47895 29.2521 0.17606 27.7599L0.404935 26.6345C19.1833 30.4763 24.2327 28.6454 25.1622 26.4335C27.4475 20.9901 8.92263 6.90383 1.59157 1.93676L2.23242 0.987793C2.29932 1.03365 9.0177 5.59857 15.2854 10.9749C23.877 18.3408 27.5566 23.6924 26.2186 26.8815C25.3453 28.9629 22.4474 30.0036 17.4544 30.0036V30Z" fill="white"/>
</g>
<defs>
<clipPath id="clip0_221_330">
<rect width="31.1905" height="30" fill="white"/>
</clipPath>
</defs>
</svg>
